<?xml version="1.0" encoding="UTF-8"?><svg id="Layer_1" xmlns="http://www.w3.org/2000/svg" viewBox="0 0 236.8838 69.7026"><defs><style>.cls-1{fill:#f04770;}.cls-1,.cls-2{stroke-width:0px;}.cls-2{fill:#1d0b81;}</style></defs><path class="cls-1" d="m17.0225,5.8716c10.2012,0,15.3022,5.8716,15.3022,13.1079,0,5.2192-2.8472,10.1421-9.2529,12.04l9.6084,16.4888h-11.4468l-8.6597-15.7178h-2.4316v15.7178H0V5.8716h17.0225Zm-.5933,8.4224h-6.2871v10.3198h6.2871c3.7959,0,5.5752-1.957,5.5752-5.2192,0-3.0845-1.7793-5.1006-5.5752-5.1006Z"/><path class="cls-1" d="m51.896,47.9829c-9.7271,0-16.7256-6.5244-16.7256-17.0229s6.8804-17.022,16.7256-17.022c9.668,0,16.4888,6.4053,16.4888,16.4883,0,.9487-.0596,1.957-.1782,2.9653h-22.9531c.356,4.3306,3.0249,6.3472,6.2866,6.3472,2.8472,0,4.4487-1.4238,5.2788-3.2031h10.7949c-1.6016,6.4648-7.4736,11.4473-15.7178,11.4473Zm-6.5835-20.2256h12.6929c0-3.6182-2.8472-5.6938-6.228-5.6938-3.3213,0-5.8716,2.0166-6.4648,5.6938Z"/><path class="cls-1" d="m85.7026,47.9829c-8.8369,0-14.7681-4.9229-15.2427-11.3281h10.0234c.2373,2.3125,2.3135,3.8545,5.1011,3.8545,2.6094,0,3.9736-1.1855,3.9736-2.6689,0-5.3384-18.0308-1.4824-18.0308-13.6416,0-5.6348,4.8042-10.2607,13.4639-10.2607,8.5405,0,13.2856,4.7446,13.938,11.269h-9.3711c-.2964-2.2539-2.0166-3.7368-4.8638-3.7368-2.3721,0-3.6772.9492-3.6772,2.5503,0,5.2788,17.9121,1.5425,18.0898,13.8794,0,5.7529-5.1006,10.083-13.4043,10.083Z"/><path class="cls-1" d="m117.3154,47.9829c-8.8369,0-14.7681-4.9229-15.2427-11.3281h10.0234c.2373,2.3125,2.313,3.8545,5.1011,3.8545,2.6094,0,3.9736-1.1855,3.9736-2.6689,0-5.3384-18.0308-1.4824-18.0308-13.6416,0-5.6348,4.8042-10.2607,13.4639-10.2607,8.5405,0,13.2856,4.7446,13.938,11.269h-9.3711c-.2969-2.2539-2.0166-3.7368-4.8633-3.7368-2.3726,0-3.6777.9492-3.6777,2.5503,0,5.2788,17.9121,1.5425,18.0898,13.8794,0,5.7529-5.1006,10.083-13.4043,10.083Z"/><path class="cls-1" d="m150.5293,47.9829c-9.7266,0-17.082-6.5244-17.082-17.0229s7.5332-17.022,17.2012-17.022c9.7266,0,17.2002,6.5239,17.2002,17.022s-7.5918,17.0229-17.3193,17.0229Zm0-8.7783c3.6182,0,6.999-2.6689,6.999-8.2446,0-5.6343-3.3213-8.2441-6.8799-8.2441-3.6777,0-6.8809,2.6099-6.8809,8.2441,0,5.5757,3.085,8.2446,6.7617,8.2446Z"/><path class="cls-1" d="m176.5068,47.9829c-3.6182,0-6.0498-2.4316-6.0498-5.457,0-3.1436,2.4316-5.5752,6.0498-5.5752,3.5586,0,5.9902,2.4316,5.9902,5.5752,0,3.0254-2.4316,5.457-5.9902,5.457Z"/><path class="cls-1" d="m199.5781,13.938c4.9229,0,8.4229,2.2534,10.2021,5.1597v-4.6855h10.1416v33.0962h-10.1416v-4.6855c-1.8389,2.9062-5.3389,5.1602-10.2617,5.1602-8.0654,0-14.5303-6.6426-14.5303-17.082s6.4648-16.9629,14.5898-16.9629Zm2.9658,8.8374c-3.7959,0-7.2363,2.8467-7.2363,8.1255s3.4404,8.2441,7.2363,8.2441c3.8555,0,7.2363-2.9062,7.2363-8.1851s-3.3809-8.1846-7.2363-8.1846Z"/><path class="cls-1" d="m224.8438,5.5156c0-3.084,2.4316-5.5156,6.0498-5.5156,3.5586,0,5.9902,2.4316,5.9902,5.5156,0,3.0249-2.4316,5.4565-5.9902,5.4565-3.6182,0-6.0498-2.4316-6.0498-5.4565Zm.9492,8.8965h10.1416v33.0962h-10.1416V14.4121Z"/><path class="cls-2" d="m6.8916,57.936h-3.6279v1.9893h3.208v1.8486h-3.208v2.1572h3.6279v1.9189H.8687v-9.833h6.0229v1.9189Z"/><path class="cls-2" d="m18.8638,61.606c0-1.0225-.5884-1.583-1.4985-1.583-.9106,0-1.499.5605-1.499,1.583v4.2441h-2.3813v-4.2441c0-1.0225-.5884-1.583-1.4985-1.583-.9106,0-1.499.5605-1.499,1.583v4.2441h-2.395v-7.8164h2.395v.9805c.4624-.6299,1.2607-1.0645,2.2832-1.0645,1.1768,0,2.1294.5186,2.6616,1.457.5181-.8262,1.4985-1.457,2.6333-1.457,1.9331,0,3.1797,1.2324,3.1797,3.334v4.5664h-2.3813v-4.2441Z"/><path class="cls-2" d="m27.3726,57.9214c1.9194,0,3.4463,1.541,3.4463,4.0068s-1.5269,4.0342-3.4463,4.0342c-1.1484,0-1.9751-.5469-2.4092-1.2051v4.8184h-2.395v-11.542h2.395v1.1064c.4341-.6865,1.2607-1.2188,2.4092-1.2188Zm-.7144,2.0879c-.8965,0-1.709.6865-1.709,1.9326,0,1.2471.8125,1.9336,1.709,1.9336.9106,0,1.7231-.7012,1.7231-1.9473,0-1.2471-.8125-1.9189-1.7231-1.9189Z"/><path class="cls-2" d="m31.7241,55.4849h2.395v10.3652h-2.395v-10.3652Z"/><path class="cls-2" d="m39.0615,65.9624c-2.2969,0-4.0342-1.541-4.0342-4.0205s1.7793-4.0205,4.0625-4.0205c2.2969,0,4.062,1.541,4.062,4.0205s-1.793,4.0205-4.0903,4.0205Zm0-2.0732c.8545,0,1.6528-.6309,1.6528-1.9473,0-1.3311-.7842-1.9473-1.6245-1.9473-.8687,0-1.625.6162-1.625,1.9473,0,1.3164.7285,1.9473,1.5967,1.9473Z"/><path class="cls-2" d="m49.4644,58.0337h2.5913l-4.9023,11.5283h-2.5776l1.793-3.9785-3.1797-7.5498h2.6758l1.8066,4.8887,1.793-4.8887Z"/><path class="cls-2" d="m52.3457,55.9331c0-.7285.5742-1.3027,1.4287-1.3027.8403,0,1.4146.5742,1.4146,1.3027,0,.7139-.5742,1.2881-1.4146,1.2881-.8545,0-1.4287-.5742-1.4287-1.2881Zm.2241,2.1006h2.395v7.8164h-2.395v-7.8164Z"/><path class="cls-2" d="m61.7422,61.606c0-1.0645-.5884-1.6533-1.4985-1.6533-.9106,0-1.499.5889-1.499,1.6533v4.2441h-2.395v-7.8164h2.395v1.0371c.4766-.6592,1.3169-1.1211,2.3672-1.1211,1.8071,0,3.0117,1.2324,3.0117,3.334v4.5664h-2.3813v-4.2441Z"/><path class="cls-2" d="m68.4048,57.9214c1.1489,0,1.9893.5186,2.4097,1.2188v-1.1064h2.395v7.8027c0,2.0869-1.2046,3.8662-3.9082,3.8662-2.3252,0-3.8379-1.1768-4.0479-3.04h2.3672c.1538.5879.7422.9668,1.5688.9668.9106,0,1.625-.4766,1.625-1.793v-1.1074c-.4346.6865-1.2607,1.2334-2.4097,1.2334-1.9189,0-3.4458-1.5693-3.4458-4.0342s1.5269-4.0068,3.4458-4.0068Zm.7007,2.0879c-.8965,0-1.709.6719-1.709,1.9189,0,1.2461.8125,1.9473,1.709,1.9473.9102,0,1.709-.6865,1.709-1.9336,0-1.2461-.7988-1.9326-1.709-1.9326Z"/><path class="cls-2" d="m77.5874,60.0229h-.9526v-1.9893h.9526v-1.9053h2.3955v1.9053h1.5688v1.9893h-1.5688v3.1377c0,.4619.1958.6582.728.6582h.8545v2.0312h-1.2183c-1.625,0-2.7598-.6865-2.7598-2.7178v-3.1094Z"/><path class="cls-2" d="m82.5435,55.4849h2.395v3.5996c.4766-.6729,1.3311-1.1348,2.4092-1.1348,1.7793,0,2.9697,1.2324,2.9697,3.334v4.5664h-2.3813v-4.2441c0-1.0645-.5884-1.6533-1.4985-1.6533-.9106,0-1.499.5889-1.499,1.6533v4.2441h-2.395v-10.3652Z"/><path class="cls-2" d="m95.103,65.9624c-2.2974,0-3.9502-1.541-3.9502-4.0205s1.625-4.0205,3.9502-4.0205c2.2832,0,3.894,1.5137,3.894,3.8945,0,.2236-.0137.4619-.042.7002h-5.4209c.084,1.0225.7144,1.499,1.4849,1.499.6724,0,1.0508-.3359,1.2466-.7568h2.5493c-.3779,1.5273-1.7646,2.7041-3.7119,2.7041Zm-1.5547-4.7764h2.9976c0-.8545-.6724-1.3447-1.4707-1.3447-.7847,0-1.3867.4756-1.5269,1.3447Z"/><path class="cls-2" d="m102.0024,56.0171h2.5635l1.4146,7.1572,1.751-7.1572h2.6338l1.6807,7.1572,1.4287-7.1572h2.5776l-2.5635,9.833h-2.8994l-1.5688-6.4717-1.625,6.4717h-2.8994l-2.4937-9.833Z"/><path class="cls-2" d="m120.4561,65.9624c-2.2969,0-4.0337-1.541-4.0337-4.0205s1.7788-4.0205,4.062-4.0205c2.2969,0,4.0625,1.541,4.0625,4.0205s-1.793,4.0205-4.0908,4.0205Zm0-2.0732c.8545,0,1.6533-.6309,1.6533-1.9473,0-1.3311-.7842-1.9473-1.625-1.9473-.8682,0-1.625.6162-1.625,1.9473,0,1.3164.7285,1.9473,1.5967,1.9473Z"/><path class="cls-2" d="m127.8613,65.8501h-2.3945v-7.8164h2.3945v1.3027c.5469-.8262,1.4014-1.3867,2.4521-1.3867v2.5352h-.6592c-1.1338,0-1.793.3926-1.793,1.7373v3.6279Z"/><path class="cls-2" d="m131.1084,55.4849h2.3955v10.3652h-2.3955v-10.3652Z"/><path class="cls-2" d="m137.8584,57.9214c1.0361,0,1.9326.4766,2.4092,1.1914v-3.6279h2.3955v10.3652h-2.3955v-1.1211c-.4346.7148-1.2607,1.2334-2.4092,1.2334-1.9199,0-3.4463-1.5693-3.4463-4.0342s1.5264-4.0068,3.4463-4.0068Zm.7002,2.0879c-.8965,0-1.709.6719-1.709,1.9189,0,1.2461.8125,1.9473,1.709,1.9473.9102,0,1.709-.6865,1.709-1.9336,0-1.2461-.7988-1.9326-1.709-1.9326Z"/></svg>